<svg width="14" height="15" viewBox="0 0 14 15" fill="none" xmlns="http://www.w3.org/2000/svg">
<path d="M13.5 5.205C13.4922 5.1361 13.4771 5.06822 13.455 5.0025V4.935C13.4189 4.85788 13.3708 4.787 13.3125 4.725L8.8125 0.225C8.7505 0.166662 8.67962 0.118561 8.6025 0.0824999C8.58011 0.0793201 8.55739 0.0793201 8.535 0.0824999C8.45881 0.0388059 8.37467 0.0107582 8.2875 0H5.25C4.65326 0 4.08097 0.237053 3.65901 0.65901C3.23705 1.08097 3 1.65326 3 2.25V3H2.25C1.65326 3 1.08097 3.23705 0.65901 3.65901C0.237053 4.08097 0 4.65326 0 5.25V12.75C0 13.3467 0.237053 13.919 0.65901 14.341C1.08097 14.7629 1.65326 15 2.25 15H8.25C8.84674 15 9.41903 14.7629 9.84099 14.341C10.2629 13.919 10.5 13.3467 10.5 12.75V12H11.25C11.8467 12 12.419 11.7629 12.841 11.341C13.2629 10.919 13.5 10.3467 13.5 9.75V5.25C13.5 5.25 13.5 5.25 13.5 5.205ZM9 2.5575L10.9425 4.5H9.75C9.55109 4.5 9.36032 4.42098 9.21967 4.28033C9.07902 4.13968 9 3.94891 9 3.75V2.5575ZM9 12.75C9 12.9489 8.92098 13.1397 8.78033 13.2803C8.63968 13.421 8.44891 13.5 8.25 13.5H2.25C2.05109 13.5 1.86032 13.421 1.71967 13.2803C1.57902 13.1397 1.5 12.9489 1.5 12.75V5.25C1.5 5.05109 1.57902 4.86032 1.71967 4.71967C1.86032 4.57902 2.05109 4.5 2.25 4.5H3V9.75C3 10.3467 3.23705 10.919 3.65901 11.341C4.08097 11.7629 4.65326 12 5.25 12H9V12.75ZM12 9.75C12 9.94891 11.921 10.1397 11.7803 10.2803C11.6397 10.421 11.4489 10.5 11.25 10.5H5.25C5.05109 10.5 4.86032 10.421 4.71967 10.2803C4.57902 10.1397 4.5 9.94891 4.5 9.75V2.25C4.5 2.05109 4.57902 1.86032 4.71967 1.71967C4.86032 1.57902 5.05109 1.5 5.25 1.5H7.5V3.75C7.5 4.34674 7.73705 4.91903 8.15901 5.34099C8.58097 5.76295 9.15326 6 9.75 6H12V9.75Z" fill="#BDBDBD"/>
</svg>
