<svg width="21" height="16" viewBox="0 0 21 16" fill="none" xmlns="http://www.w3.org/2000/svg">
<path fill-rule="evenodd" clip-rule="evenodd" d="M0.2084 4.10927C-0.0945649 6.8518 -0.0810601 10.0148 0.34052 12.7462C0.57379 14.2576 1.83983 15.4162 3.40262 15.5485L5.03588 15.6869C8.44146 15.9753 11.8663 15.9753 15.2719 15.6869L16.9052 15.5485C18.4679 15.4162 19.734 14.2576 19.9673 12.7462C20.3888 10.0148 20.4024 6.85197 20.0994 4.10943C20.0602 3.79148 20.0162 3.47396 19.9673 3.15697C19.734 1.64563 18.4679 0.486999 16.9052 0.354643L15.2719 0.216319C11.8663 -0.0721065 8.44146 -0.0721063 5.03588 0.216319L3.40262 0.354644C1.83983 0.486999 0.57379 1.64563 0.34052 3.15697C0.291603 3.47391 0.247563 3.79137 0.2084 4.10927ZM5.17637 1.79085C8.48847 1.51034 11.8193 1.51034 15.1314 1.79085L16.7647 1.92917C17.5805 1.99826 18.2413 2.60307 18.3631 3.392C18.3757 3.47393 18.388 3.55589 18.4 3.63789L12.386 6.89307C10.9978 7.64444 9.30989 7.64444 7.92172 6.89307L1.90777 3.63793C1.91973 3.55592 1.93203 3.47394 1.94468 3.392C2.06645 2.60307 2.72732 1.99826 3.5431 1.92917L5.17637 1.79085ZM18.5985 5.33844C18.8083 7.72785 18.7298 10.1353 18.3631 12.5112C18.2413 13.3001 17.5805 13.9049 16.7647 13.974L15.1314 14.1123C11.8193 14.3929 8.48847 14.3929 5.17637 14.1123L3.5431 13.974C2.72732 13.9049 2.06645 13.3001 1.94468 12.5112C1.57797 10.1353 1.4995 7.72787 1.70927 5.33848L7.13392 8.27465C9.01202 9.2912 11.2957 9.2912 13.1738 8.27465L18.5985 5.33844Z" fill="#CBCBCB"/>
</svg>
