<svg width="17" height="22" viewBox="0 0 17 22" fill="none" xmlns="http://www.w3.org/2000/svg">
<path d="M6.60058 15.4466C6.60058 14.5141 7.34163 13.7582 8.25576 13.7582C9.16989 13.7582 9.91094 14.5141 9.91094 15.4466C9.91094 16.3791 9.16989 17.1351 8.25576 17.1351C7.34163 17.1351 6.60058 16.3791 6.60058 15.4466Z" fill="#CBCBCB"/>
<path fill-rule="evenodd" clip-rule="evenodd" d="M3.42446 9.36506L3.07638 6.16945C3.03176 5.75975 3.03176 5.34627 3.07638 4.93657L3.1015 4.70593C3.36797 2.25952 5.25334 0.323835 7.6498 0.0362342C8.05237 -0.0120781 8.4591 -0.0120781 8.86167 0.0362342C11.2581 0.323835 13.1435 2.25952 13.41 4.70593L13.4351 4.93657C13.4797 5.34627 13.4797 5.75975 13.4351 6.16945L13.087 9.36505L13.8446 9.42675C15.0394 9.52404 16.0149 10.4402 16.2086 11.6467C16.6126 14.1632 16.6126 16.73 16.2086 19.2465C16.0149 20.4531 15.0394 21.3692 13.8446 21.4665L12.1937 21.6009C9.57261 21.8144 6.93897 21.8144 4.31785 21.6009L2.66694 21.4665C1.4722 21.3692 0.49663 20.4531 0.302957 19.2465C-0.100986 16.73 -0.100986 14.1632 0.302957 11.6467C0.49663 10.4402 1.4722 9.52404 2.66694 9.42675L3.42446 9.36506ZM7.84319 1.7131C8.11727 1.68021 8.39419 1.68021 8.66827 1.7131C10.2999 1.90891 11.5835 3.22679 11.7649 4.89239L11.79 5.12302C11.8212 5.4088 11.8212 5.69722 11.79 5.983L11.4356 9.23654C9.3179 9.09744 7.19357 9.09744 5.07583 9.23655L4.72144 5.983C4.69031 5.69722 4.69031 5.4088 4.72144 5.12302L4.74656 4.89239C4.92798 3.22679 6.2116 1.90891 7.84319 1.7131ZM12.062 10.9754C9.52856 10.7691 6.98302 10.7691 4.44956 10.9754L2.79865 11.1098C2.36287 11.1453 2.00703 11.4795 1.93638 11.9196C1.56144 14.2554 1.56144 16.6379 1.93638 18.9737C2.00703 19.4138 2.36287 19.7479 2.79865 19.7834L4.44956 19.9179C6.98301 20.1242 9.52856 20.1242 12.062 19.9179L13.7129 19.7834C14.1487 19.7479 14.5045 19.4138 14.5752 18.9737C14.9501 16.6379 14.9501 14.2554 14.5752 11.9196C14.5045 11.4795 14.1487 11.1453 13.7129 11.1098L12.062 10.9754Z" fill="#CBCBCB"/>
</svg>
