<svg width="16" height="16" viewBox="0 0 16 16" fill="none" xmlns="http://www.w3.org/2000/svg">
<path fill-rule="evenodd" clip-rule="evenodd" d="M3.41938 4.56747C2.36546 4.54395 1.5301 3.67061 1.55344 2.61669C1.57677 1.56277 2.44997 0.727258 3.5039 0.750409C4.55782 0.77356 5.39349 1.64661 5.37052 2.70054C5.35948 3.20689 5.14769 3.6881 4.78175 4.03825C4.41581 4.3884 3.92573 4.57877 3.41938 4.56747V4.56747Z" stroke="#909090" stroke-width="1.5" stroke-linecap="round" stroke-linejoin="round"/>
<path fill-rule="evenodd" clip-rule="evenodd" d="M12.1891 11.1239C13.2432 11.1469 14.079 12.02 14.0561 13.0741C14.0331 14.1281 13.16 14.964 12.1059 14.941C11.0519 14.9181 10.216 14.045 10.239 12.9909C10.2619 11.9368 11.135 11.101 12.1891 11.1239V11.1239Z" stroke="#909090" stroke-width="1.5" stroke-linecap="round" stroke-linejoin="round"/>
<path d="M12.1577 7.30475C12.1486 7.71886 12.477 8.06188 12.8911 8.07091C13.3053 8.07993 13.6483 7.75154 13.6573 7.33743L12.1577 7.30475ZM12.9448 5.60749L13.6947 5.62383L13.6947 5.61949L12.9448 5.60749ZM10.2332 2.80675L10.2169 3.55658L10.2209 3.55665L10.2332 2.80675ZM5.38669 1.95096C4.97257 1.94193 4.62955 2.27033 4.62053 2.68444C4.6115 3.09856 4.93989 3.44158 5.35401 3.4506L5.38669 1.95096ZM12.3888 6.77933C12.0896 7.06577 12.0793 7.54053 12.3657 7.83974C12.6522 8.13894 13.1269 8.14929 13.4261 7.86284L12.3888 6.77933ZM15.3763 5.99589C15.6755 5.70944 15.6858 5.23468 15.3994 4.93548C15.1129 4.63627 14.6382 4.62593 14.339 4.91237L15.3763 5.99589ZM12.3657 7.83974C12.6522 8.13894 13.1269 8.14929 13.4261 7.86284C13.7253 7.5764 13.7357 7.10164 13.4492 6.80244L12.3657 7.83974ZM11.5823 4.8523C11.2958 4.55309 10.8211 4.54275 10.5219 4.82919C10.2227 5.11563 10.2123 5.59039 10.4988 5.8896L11.5823 4.8523ZM3.44998 8.38829C3.45901 7.97418 3.13062 7.63116 2.7165 7.62213C2.30239 7.61311 1.95936 7.9415 1.95034 8.35561L3.44998 8.38829ZM2.66284 10.0845L1.91301 10.0682L1.91294 10.0725L2.66284 10.0845ZM5.37447 12.8853L5.39081 12.1355L5.38671 12.1354L5.37447 12.8853ZM10.221 13.7411C10.6351 13.7501 10.9781 13.4217 10.9871 13.0076C10.9962 12.5935 10.6678 12.2505 10.2537 12.2414L10.221 13.7411ZM3.21883 8.91271C3.51804 8.62627 3.52838 8.15151 3.24194 7.8523C2.9555 7.5531 2.48074 7.54275 2.18153 7.82919L3.21883 8.91271ZM0.231396 9.69615C-0.0678089 9.98259 -0.0781548 10.4574 0.208288 10.7566C0.494731 11.0558 0.969492 11.0661 1.2687 10.7797L0.231396 9.69615ZM3.24194 7.8523C2.9555 7.5531 2.48074 7.54275 2.18153 7.82919C1.88233 8.11564 1.87198 8.5904 2.15842 8.8896L3.24194 7.8523ZM4.02538 10.8397C4.31182 11.1389 4.78659 11.1493 5.08579 10.8628C5.38499 10.5764 5.39534 10.1016 5.1089 9.80244L4.02538 10.8397ZM13.6573 7.33743L13.6946 5.62383L12.195 5.59115L12.1577 7.30475L13.6573 7.33743ZM13.6947 5.61949C13.7257 3.68333 12.1816 2.08847 10.2454 2.05685L10.2209 3.55665C11.329 3.57475 12.2126 4.48746 12.1949 5.59549L13.6947 5.61949ZM10.2495 2.05693L5.38669 1.95096L5.35401 3.4506L10.2169 3.55657L10.2495 2.05693ZM13.4261 7.86284L15.3763 5.99589L14.339 4.91237L12.3888 6.77933L13.4261 7.86284ZM13.4492 6.80244L11.5823 4.8523L10.4988 5.8896L12.3657 7.83974L13.4492 6.80244ZM1.95034 8.35561L1.91302 10.0682L3.41266 10.1009L3.44998 8.38829L1.95034 8.35561ZM1.91294 10.0725C1.88196 12.0087 3.42607 13.6036 5.36222 13.6352L5.38671 12.1354C4.27869 12.1173 3.39502 11.2046 3.41274 10.0965L1.91294 10.0725ZM5.35813 13.6351L10.221 13.7411L10.2537 12.2414L5.39081 12.1355L5.35813 13.6351ZM2.18153 7.82919L0.231396 9.69615L1.2687 10.7797L3.21883 8.91271L2.18153 7.82919ZM2.15842 8.8896L4.02538 10.8397L5.1089 9.80244L3.24194 7.8523L2.15842 8.8896Z" fill="#909090"/>
</svg>
