<svg width="18" height="19" viewBox="0 0 18 19" fill="none" xmlns="http://www.w3.org/2000/svg">
<path fill-rule="evenodd" clip-rule="evenodd" d="M17.8531 10.0487C17.8846 9.95669 17.8887 9.85818 17.8637 9.76417C17.2699 7.53852 6.2455 1.21188 2.78127 0.148177C1.8788 -0.129027 1.22487 -0.0174024 0.840955 0.478972C-0.271833 1.91565 2.02626 6.38307 3.36744 8.71906L10.3154 8.96308C10.718 8.97718 11.0329 9.31591 11.0189 9.71968C11.0048 10.1235 10.6671 10.4393 10.2645 10.4252L3.24991 10.1782C1.74022 12.4447 -0.767713 16.6313 0.226764 18.1183C0.264029 18.1742 0.30485 18.2266 0.349275 18.2744C0.716601 18.6695 1.31831 18.7733 2.13868 18.5834C5.66633 17.7666 17.1044 12.2301 17.8531 10.0487Z" fill="#DDDDE4"/>
</svg>
