<svg width="15" height="16" viewBox="0 0 15 16" fill="none" xmlns="http://www.w3.org/2000/svg">
<path d="M12.0049 9.02426C11.5618 9.02719 11.1248 9.12825 10.7254 9.32017C10.326 9.51209 9.97404 9.79012 9.69487 10.1343L5.86987 8.37176C6.04971 7.82107 6.04971 7.22744 5.86987 6.67676L9.69487 4.91426C10.1461 5.45873 10.7751 5.82631 11.471 5.95214C12.1668 6.07796 12.8848 5.95393 13.4981 5.60193C14.1114 5.24994 14.5806 4.69261 14.823 4.02831C15.0654 3.36401 15.0654 2.63544 14.8228 1.97119C14.5803 1.30693 14.111 0.749688 13.4976 0.397807C12.8842 0.0459258 12.1663 -0.0779742 11.4704 0.0479736C10.7746 0.173921 10.1456 0.54162 9.69452 1.08618C9.24341 1.63073 8.99916 2.31714 9.00487 3.02426C9.00713 3.20293 9.02469 3.38108 9.05737 3.55676L5.09737 5.37926C4.67518 4.96644 4.14056 4.68739 3.56048 4.57708C2.9804 4.46676 2.38066 4.53008 1.83641 4.7591C1.29216 4.98813 0.827595 5.37267 0.500923 5.86455C0.174252 6.35643 0 6.93378 0 7.52426C0 8.11473 0.174252 8.69208 0.500923 9.18396C0.827595 9.67584 1.29216 10.0604 1.83641 10.2894C2.38066 10.5184 2.9804 10.5818 3.56048 10.4714C4.14056 10.3611 4.67518 10.0821 5.09737 9.66926L9.05737 11.4918C9.02469 11.6674 9.00713 11.8456 9.00487 12.0243C9.00487 12.6176 9.18082 13.1976 9.51047 13.691C9.84011 14.1843 10.3086 14.5688 10.8568 14.7959C11.405 15.023 12.0082 15.0824 12.5901 14.9666C13.1721 14.8509 13.7066 14.5651 14.1262 14.1456C14.5458 13.726 14.8315 13.1915 14.9472 12.6095C15.063 12.0276 15.0036 11.4244 14.7765 10.8762C14.5494 10.328 14.1649 9.85949 13.6716 9.52985C13.1782 9.2002 12.5982 9.02426 12.0049 9.02426ZM12.0049 1.52426C12.3015 1.52426 12.5916 1.61223 12.8382 1.77705C13.0849 1.94187 13.2772 2.17614 13.3907 2.45023C13.5042 2.72432 13.5339 3.02592 13.4761 3.31689C13.4182 3.60786 13.2753 3.87514 13.0655 4.08492C12.8558 4.29469 12.5885 4.43756 12.2975 4.49543C12.0065 4.55331 11.7049 4.52361 11.4308 4.41008C11.1568 4.29654 10.9225 4.10428 10.7577 3.85761C10.5928 3.61094 10.5049 3.32093 10.5049 3.02426C10.5049 2.62643 10.6629 2.2449 10.9442 1.9636C11.2255 1.68229 11.607 1.52426 12.0049 1.52426ZM3.00487 9.02426C2.7082 9.02426 2.41819 8.93628 2.17152 8.77146C1.92484 8.60664 1.73259 8.37237 1.61905 8.09828C1.50552 7.82419 1.47582 7.52259 1.5337 7.23162C1.59157 6.94065 1.73443 6.67337 1.94421 6.4636C2.15399 6.25382 2.42127 6.11096 2.71224 6.05308C3.00321 5.9952 3.30481 6.0249 3.5789 6.13844C3.85299 6.25197 4.08726 6.44423 4.25208 6.6909C4.4169 6.93757 4.50487 7.22758 4.50487 7.52426C4.50487 7.92208 4.34684 8.30361 4.06553 8.58492C3.78423 8.86622 3.4027 9.02426 3.00487 9.02426ZM12.0049 13.5243C11.7082 13.5243 11.4182 13.4363 11.1715 13.2715C10.9248 13.1066 10.7326 12.8724 10.6191 12.5983C10.5055 12.3242 10.4758 12.0226 10.5337 11.7316C10.5916 11.4406 10.7344 11.1734 10.9442 10.9636C11.154 10.7538 11.4213 10.611 11.7122 10.5531C12.0032 10.4952 12.3048 10.5249 12.5789 10.6384C12.853 10.752 13.0873 10.9442 13.2521 11.1909C13.4169 11.4376 13.5049 11.7276 13.5049 12.0243C13.5049 12.4221 13.3468 12.8036 13.0655 13.0849C12.7842 13.3662 12.4027 13.5243 12.0049 13.5243Z" fill="#BDBDBD"/>
</svg>
