<svg width="19" height="21" viewBox="0 0 19 21" fill="none" xmlns="http://www.w3.org/2000/svg">
<path fill-rule="evenodd" clip-rule="evenodd" d="M4.17742 5.17448C4.17742 2.3167 6.44849 0 9.25 0C12.0515 0 14.3226 2.3167 14.3226 5.17448C14.3226 8.03227 12.0515 10.349 9.25 10.349C6.44849 10.349 4.17742 8.03227 4.17742 5.17448ZM9.25 1.82629C7.43726 1.82629 5.96774 3.32533 5.96774 5.17448C5.96774 7.02364 7.43726 8.52268 9.25 8.52268C11.0627 8.52268 12.5323 7.02364 12.5323 5.17448C12.5323 3.32533 11.0627 1.82629 9.25 1.82629Z" fill="#C2C3CB"/>
<path fill-rule="evenodd" clip-rule="evenodd" d="M4.47581 14.0015C2.99266 14.0015 1.79032 15.228 1.79032 16.741V18.1877C1.79032 18.2098 1.80597 18.2286 1.82729 18.2321C6.74322 19.0508 11.7568 19.0508 16.6727 18.2321C16.694 18.2286 16.7097 18.2098 16.7097 18.1877V16.741C16.7097 15.228 15.5073 14.0015 14.0242 14.0015H13.6174C13.5859 14.0015 13.5546 14.0066 13.5247 14.0166L12.4917 14.3607C10.3853 15.0623 8.11471 15.0623 6.0083 14.3607L4.97527 14.0166C4.94537 14.0066 4.91411 14.0015 4.88265 14.0015H4.47581ZM0 16.741C0 14.2194 2.00389 12.1753 4.47581 12.1753H4.88265C5.10285 12.1753 5.32167 12.2108 5.53099 12.2805L6.56402 12.6246C8.30933 13.2059 10.1907 13.2059 11.936 12.6246L12.969 12.2805C13.1783 12.2108 13.3972 12.1753 13.6174 12.1753H14.0242C16.4961 12.1753 18.5 14.2194 18.5 16.741V18.1877C18.5 19.1048 17.8485 19.8868 16.9612 20.0345C11.8542 20.8851 6.6458 20.8851 1.53881 20.0345C0.651538 19.8868 0 19.1048 0 18.1877V16.741Z" fill="#C2C3CB"/>
</svg>
